<?xml version="1.0" encoding="utf-8"?>
<!-- Generator: Adobe Illustrator 22.1.0, SVG Export Plug-In . SVG Version: 6.00 Build 0)  -->
<svg version="1.1" id="Calque_1" xmlns="http://www.w3.org/2000/svg" xmlns:xlink="http://www.w3.org/1999/xlink" x="0px" y="0px"
	 viewBox="0 0 25 23.7" style="enable-background:new 0 0 25 23.7;" xml:space="preserve">
<g>
	<path d="M20.3,2.3c4.2,3.1,5.6,8.9,4.1,13.8c-1.7,5.3-6.7,7.7-12,7.6c-4.9-0.1-9.9-2-11.6-6.9C-1,11.8,0.2,5.9,4.5,2.6
		C8.9-0.7,15.8-0.9,20.3,2.3z M11.1,5.7c-0.7,2.1-0.6,4.6-0.6,6.8c0,1.3,0,2.7,0.1,4c0.1,0.9,0.1,2.1,0.7,2.9c0.7,1,1.7,0.6,2.2-0.3
		c0.4-0.8,0.5-1.8,0.6-2.7c0.3-2.7,0.4-5.5,0.3-8.2c-0.1-1.1-0.1-2.5-0.7-3.4C12.6,3.1,11.5,4.6,11.1,5.7z"/>
</g>
</svg>
